# xmcd CD database generated by RipIT
#
# Track frame offsets:
# 150
# 18387
# 42762
# 58250
#
# Disc length: 1176 seconds
#
# Revision: 0
# Processed by: cddbd v1.5.2PL0 Copyright (c) Steve Scherf et al.
# Submitted via: RipIT 4.0.0-beta20140508 www.suwald.com/ripit/ripit.html on 2018-07-10 at 17:58
#
DISCID=2d049604
DTITLE=Kev Carmody - Street Beat
DYEAR=1900
DGENRE=Country
TTITLE0=Living South of The Freeway
TTITLE1=Darkside
TTITLE2=Street Beat
TTITLE3=Rider In The Rain
EXTD=
EXTT0=
EXTT1=
EXTT2=
EXTT3=
PLAYORDER=
